<?xml version="1.0" encoding="utf-8"?>
<!-- Generator: Adobe Illustrator 19.2.1, SVG Export Plug-In . SVG Version: 6.00 Build 0)  -->
<svg version="1.1" id="layer" xmlns="http://www.w3.org/2000/svg" xmlns:xlink="http://www.w3.org/1999/xlink" x="0px" y="0px"
	 viewBox="0 0 652 652" style="enable-background:new 0 0 652 652;" xml:space="preserve">
<style type="text/css">
	.st0{fill:#1A1A1A;}
	.st1{fill:url(#SVGID_1_);}
</style>
<path class="st0" d="M603.4,288.3h3.9V286H597v2.4h3.9v9.4h2.5V288.3z M619.5,293.5v4.3h2.5V286h-3l-2.2,4.3c-0.5,1-0.9,1.9-1,1.9h0
	c0,0-0.2-0.4-0.5-1c-0.2-0.3-0.3-0.6-0.5-1l-2.2-4.3h-3v11.8h2.4v-4.3l0-4.2h0c0,0,0.7,1.3,1.4,2.6l1.7,3.3h1.4l1.7-3.3
	c0.4-0.7,0.7-1.4,1-1.9c0.2-0.4,0.3-0.6,0.3-0.6h0L619.5,293.5z M322.3,336.7c0.8,7.4,7.1,10.8,15.4,10.8c7.7,0,12.4-3,12.4-9.2
	c0-7.2-6.5-8.5-13-9.7c-1.2-0.2-2.4-0.5-3.6-0.7c-8.3-1.9-18.7-5.2-18.7-17.6c0-11.2,8.3-17.2,21.3-17.2c11.7,0,20.1,4.8,23,15.3
	l-9.1,2.4c-1.6-5.9-6.1-9.3-14-9.3c-7.8,0-11.5,3.2-11.5,8.4c0,7,7,8.5,15.7,10.2c9,1.7,19.6,4.8,19.6,18.2
	c0,11.7-8.2,17.7-22.1,17.7c-10.3,0-22.1-3.3-24.6-16.8L322.3,336.7z M242.4,294.3h-41.9v60.6h42.2V346H210v-18h24.9V319H210v-15.8
	h32.4V294.3z M262.2,310h0.2l32.3,44.9h9.7v-60.6h-9.5v30.1c0,6.1,0.1,12.6,0.2,14l0,0.2h-0.3l-32.2-44.3h-9.7v60.6h9.5v-30.1
	c0-6.9-0.1-13.4-0.2-14.7v0L262.2,310z M396.9,356c13,0,23.9-6.9,28.6-18.4l-9.4-2.5c-3.4,7.1-10.4,12-19.7,12
	c-12,0-21.1-8.7-21.1-22.5c0-13.7,8.7-22.4,21.3-22.4c10.6,0,16.2,6.1,18.7,10.4l9.4-2.5c-4-9.3-13.9-16.9-27.8-16.9
	c-17.9,0-31.3,12.6-31.3,31.3C365.7,343.5,379.2,356,396.9,356z M445.3,340.8l-5.7,14.1h-10l25-60.6h10.7l24.9,60.6H480l-5.6-14.1
	H445.3z M465,317.5c-0.5-1.3-1.1-2.7-1.6-4c-1.7-4.3-3.3-8.3-3.4-8.3h-0.3c-0.1,0.1-2.9,7-5.1,12.4l-5.8,14.6h22.1L465,317.5z
	 M540.8,313.9c0-12.6-8.7-19.6-23-19.6H498v60.6h9.5v-21.6h10.2C532.1,333.3,540.8,326.1,540.8,313.9z M531.2,313.9
	c0,7-4.4,11-13.3,11h-10.5V303H518C526.5,303,531.2,306.7,531.2,313.9z M549,294.3h41.9v8.9h-32.4V319h24.9v8.9h-24.9v18h32.6v8.9
	H549V294.3z"/>
<linearGradient id="SVGID_1_" gradientUnits="userSpaceOnUse" x1="164.5835" y1="370.5737" x2="42.7924" y2="300.2577" gradientTransform="matrix(1 0 0 -1 0 652)">
	<stop  offset="1.170000e-002" style="stop-color:#EE5C17"/>
	<stop  offset="1" style="stop-color:#EE9604"/>
</linearGradient>
<path class="st1" d="M96,248.1l-74,42.7L48.1,361L96,393.9l47.8-32.8l9.7-26.1L96,369l-30.4-18l-10.4-31L96,343.7l67-38.7l0,0
	l2.2-1.3l4.8-12.8L96,248.1z M96,318.5l-43.5-25.1L96,268.2l43.5,25.1L96,318.5z"/>
</svg>
