<?xml version="1.0" encoding="utf-8"?>
<!-- Generator: Adobe Illustrator 19.2.1, SVG Export Plug-In . SVG Version: 6.00 Build 0)  -->
<svg version="1.1" id="layer" xmlns="http://www.w3.org/2000/svg" xmlns:xlink="http://www.w3.org/1999/xlink" x="0px" y="0px"
	 viewBox="0 0 652 652" style="enable-background:new 0 0 652 652;" xml:space="preserve">
<style type="text/css">
	.st0{fill:#363545;}
	.st1{fill:#005F9E;}
</style>
<path class="st0" d="M167,335.4l10.4-5.5c4.6,9.1,11.8,13.5,21.4,13.5c9.4,0,15.8-3,15.8-10.1c0-6.7-4.8-9.9-17.6-13.6
	c-15-4.4-27.1-8.5-27.1-23.3c0-13.2,10.8-21.9,26.6-21.9c15.3,0,24.4,7.6,29.1,16.7l-9.5,6.6c-4.6-7.8-11.2-11.3-19.6-11.3
	c-8.6,0-13.5,3.1-13.5,8.8c0,7.2,5.6,9.7,18.3,13.4c14.7,4.3,26.5,9.1,26.5,23.7c0,12.7-10.8,22.7-29.3,22.7
	C182.8,355.1,171.9,347.2,167,335.4z M233,353.7V276h12.9v46.3l21.1-24.4h14.2L263,318.3l19.7,35.4h-13.5l-14.4-25.8l-8.9,9.8v16.1
	L233,353.7L233,353.7z M282,325.9c0-21.2,15-29,26.6-29c12.5,0,24.5,7.4,24.5,30.1v3h-38.1c0.5,10.1,6.7,14.5,14.9,14.5
	c7.2,0,11.4-2.4,15.6-6.5l6.8,6.7c-5.8,6.4-13.4,10.1-23.4,10.1C294.9,354.8,282,346.3,282,325.9z M321.2,320.4
	c-0.7-8.5-4.9-13-12.7-13c-6.3,0-12.1,3.6-13.3,13H321.2z M347,339.1v-30.9h-9.7v-10.3h9.7v-19.4h12.9v19.4h14.4v10.3h-14.4v27.6
	c0,6,1.8,8.4,8.2,8.4c1.9,0,4.3-0.3,5.6-0.7v10.2c-1.4,0.3-6.2,0.7-9.4,0.7C350,354.4,347,349.2,347,339.1z M379.3,325.9
	c0-21.3,14.4-29,26.8-29c13.9,0,19.7,7.7,23.1,16.3l-10.9,3.9c-2.2-6.3-6.2-9.3-12.4-9.3c-7.3,0-13.5,4.8-13.5,18.2
	c0,11.9,4.8,18.4,13.3,18.4c5.9,0,10-1.8,13-9.7l10.7,3.9c-4,8.9-10.6,16.4-24,16.4C392.4,354.8,379.3,346.2,379.3,325.9z
	 M437.1,353.7V276h13v29.5c3.6-3.8,10.3-8.6,20.4-8.6c9.8,0,16.1,5.8,16.1,16.8v40h-13v-36.7c0-6.2-2.6-9-8.3-9
	c-5.7,0-10.4,2.9-15.1,7.2v38.5L437.1,353.7L437.1,353.7z M496.4,325.3V276h13.1v48.2c0,11.9,5.1,18.9,17.1,18.9
	c11.9,0,17-6.8,17-18.8V276h12.9v49.2c0,17.6-10,29.7-30,29.7C505.2,354.9,496.4,343,496.4,325.3z M565.1,374.7v-76.7H578v7.3
	c3.7-4.4,9.4-8.4,17.7-8.4c12.7,0,22,9.5,22,28.9s-9.5,28.8-23.8,28.8c-6,0-11.9-2.4-16-7v27.2L565.1,374.7L565.1,374.7z
	 M604.9,325.9c0-11.8-5-17.9-13.3-17.9c-5.3,0-10.5,3.4-13.5,7v22.4c3.5,4.5,8.5,6.9,13.1,6.9C600.9,344.2,604.9,338.2,604.9,325.9z
	"/>
<path class="st1" d="M129.4,282.4l-39.5-22.8c0,0-6.3-3.7-16.3-3.7c-10.4,0-16.4,3.8-16.4,3.8l-36.6,21l55.7,32v64.7l36.7-20.9
	c0,0,6.6-3.6,11.5-12.2c4.4-7.6,4.9-14.9,4.9-14.9L129.4,282.4L129.4,282.4z M69.8,293c0,0,8.2-1.5,15.1,2.5s11,6.3,11,6.3
	s0,5.5,0,13.8c0,6.6-5.6,13.5-5.6,13.5l0-24.4L69.8,293z M102.2,346.4l-11.9,6.8v-6.4l9.3-5.3c8.8-6.4,10.3-15.8,10.3-19l0-28.9
	l-25.3-14.6c0,0-3.9-2.5-10.8-2.5c-6.9,0-10.7,2.3-10.7,2.3l-8.9,5.1l-5.6-3.2l12.3-7c0,0,4.8-2.7,12.9-2.7c7.4,0,13.2,2.9,13.2,2.9
	l28.6,16.5l0,31.5C115.6,326.8,113.4,338.6,102.2,346.4z M17.8,301.7l39.1,22.4l0,6.7L34.6,318l-14,7.9l36.2,20.8l0,6.4L18,331
	c0.1,2.6,2.5,10.7,7,16.9c4.6,6.3,9.8,9,9.8,9l35.8,20.6V316l-52.9-30.4L17.8,301.7z"/>
</svg>
