<svg width="417" height="166" viewBox="0 0 417 166" xmlns="http://www.w3.org/2000/svg">
  <path d="M34.4139 49.9768V93.7949C34.4139 96.8241 35.1183 99.0785 36.5974 100.417C38.0765 101.755 40.5417 102.46 44.0634 102.46H52.586C53.7834 102.46 54.699 103.376 54.699 104.573V119.649C54.699 120.847 53.7834 121.762 52.586 121.762H40.3304C21.0314 121.762 11.3819 112.393 11.3819 93.654V49.9768H2.7185C1.52111 49.9768 0.605469 49.061 0.605469 47.8634V33.3513C0.605469 32.1537 1.52111 31.2379 2.7185 31.2379H11.3819V10.9491C11.3819 9.75151 12.2976 8.83569 13.4949 8.83569H32.3009C33.4983 8.83569 34.4139 9.75151 34.4139 10.9491V31.2379H52.586C53.7834 31.2379 54.699 32.1537 54.699 33.3513V47.9338C54.699 49.1314 53.7834 50.0473 52.586 50.0473H34.4139V49.9768Z" fill="#342C33"/>
  <path d="M96.2552 33.9853C100.411 31.5901 105.059 30.2517 110.272 29.9699C111.469 29.8994 112.455 30.8857 112.455 32.0833V51.8085C112.455 53.0061 111.539 53.9219 110.342 53.9219H106.468C99.2839 53.9219 93.8604 55.6126 90.1979 58.9941C86.5353 62.3755 84.704 68.2931 84.704 76.6763V119.649C84.704 120.847 83.7884 121.762 82.591 121.762H63.9259C62.7285 121.762 61.8129 120.847 61.8129 119.649V33.3513C61.8129 32.1537 62.7285 31.2379 63.9259 31.2379H82.591C83.7884 31.2379 84.704 32.1537 84.704 33.3513V45.3273C87.6622 40.4665 91.5361 36.7328 96.2552 33.9853Z" fill="#342C33"/>
  <path d="M328.477 33.9147C333.619 31.1672 339.535 29.7583 346.226 29.7583C353.974 29.7583 360.947 31.6604 367.216 35.4645C373.485 39.2687 378.415 44.6931 382.077 51.7378C385.74 58.7825 387.571 66.8839 387.571 76.183C387.571 85.482 385.74 93.6538 382.077 100.769C378.415 107.884 373.485 113.449 367.216 117.395C360.947 121.34 353.974 123.312 346.226 123.312C339.606 123.312 333.689 121.974 328.688 119.226C323.617 116.479 319.532 113.097 316.362 108.941V162.903C316.362 164.101 315.447 165.017 314.249 165.017H295.584C294.387 165.017 293.471 164.101 293.471 162.903V33.3511C293.471 32.1535 294.387 31.2377 295.584 31.2377H314.249C315.447 31.2377 316.362 32.1535 316.362 33.3511V44.3409C319.18 40.114 323.265 36.6621 328.477 33.9147ZM360.806 62.0231C358.552 58.078 355.594 55.0488 352.002 52.9354C348.339 50.8924 344.395 49.8357 340.169 49.8357C336.013 49.8357 332.14 50.8924 328.477 53.0058C324.814 55.1193 321.856 58.2189 319.673 62.2344C317.419 66.2499 316.292 71.0403 316.292 76.4647C316.292 81.8892 317.419 86.6796 319.673 90.6951C321.927 94.7105 324.814 97.8102 328.477 99.9236C332.14 102.037 336.013 103.094 340.169 103.094C344.395 103.094 348.339 102.037 352.002 99.8532C355.665 97.6693 358.623 94.5696 360.806 90.5542C363.06 86.5387 364.187 81.7483 364.187 76.183C364.187 70.6881 363.06 66.0386 360.806 62.0231Z" fill="#342C33"/>
  <path d="M416.943 2.9181V119.649C416.943 120.847 416.027 121.762 414.829 121.762H396.164C394.967 121.762 394.051 120.847 394.051 119.649V2.9181C394.051 1.7205 394.967 0.804688 396.164 0.804688H414.829C416.027 0.804688 416.943 1.7205 416.943 2.9181Z" fill="#342C33"/>
  <path d="M218.529 99.4305C213.176 99.36 208.809 97.458 205.217 93.6538C204.372 92.738 203.597 91.7518 202.963 90.6246C202.611 90.061 202.541 89.3566 202.822 88.7225C204.16 85.2002 204.794 81.1142 204.794 76.3943C204.794 67.7997 202.611 61.1777 198.314 56.5282C194.018 51.8787 188.595 49.5539 182.044 49.5539H159.083C152.532 49.5539 147.109 51.8787 142.812 56.5282C138.516 61.1777 136.332 67.7997 136.332 76.3943C136.332 84.9888 138.516 91.6109 142.953 96.2604C147.32 100.839 152.673 103.094 159.083 103.235H174.437C175.142 103.235 175.846 103.657 176.269 104.221C180.635 111.266 186.481 116.76 193.666 120.706C193.736 120.776 193.807 120.776 193.877 120.846C194.229 121.058 194.229 121.621 193.736 121.762C190.003 122.678 186.129 123.171 182.044 123.171H159.083C150.63 123.101 142.953 121.128 136.051 117.394C128.937 113.52 123.372 108.025 119.287 100.98C115.202 93.8652 113.159 85.6933 113.159 76.4647C113.159 67.1657 115.132 58.9938 119.146 51.9491C123.091 44.834 128.585 39.4096 135.558 35.535C142.531 31.6604 150.349 29.7583 159.083 29.7583H182.044C190.778 29.7583 198.596 31.6604 205.569 35.535C212.542 39.4096 218.036 44.9044 221.98 51.9491C225.925 59.0643 227.967 67.2362 227.967 76.4647C227.967 84.5662 226.418 91.8222 223.248 98.2329C222.896 98.9374 222.192 99.4305 221.346 99.4305H218.529V99.4305Z" fill="#342C33"/>
  <path d="M181.974 53.5693C187.327 53.6397 191.694 55.5418 195.286 59.346C196.131 60.2618 196.906 61.248 197.54 62.3752C197.892 62.9388 197.962 63.6432 197.681 64.2772C196.342 67.7996 195.708 71.8855 195.708 76.6055C195.708 85.2 197.892 91.8221 202.188 96.4716C206.485 101.121 211.908 103.446 218.459 103.446H241.42C247.971 103.446 253.394 101.121 257.691 96.4716C261.987 91.8221 264.171 85.2 264.171 76.6055C264.171 68.0109 261.987 61.3889 257.55 56.7394C253.183 52.1603 247.83 49.906 241.42 49.7651H226.066C225.361 49.7651 224.657 49.3425 224.234 48.7789C219.867 41.7342 214.021 36.2393 206.837 32.2943C206.767 32.2238 206.696 32.2238 206.626 32.1534C206.274 31.942 206.274 31.3784 206.767 31.2376C210.5 30.3217 214.373 29.8286 218.459 29.8286H241.42C249.872 29.8991 257.55 31.8716 264.452 35.6053C271.566 39.4799 277.13 44.9747 281.216 52.0195C285.301 59.1346 287.343 67.3065 287.343 76.5351C287.343 85.8341 285.371 94.0059 281.356 101.051C277.412 108.166 271.918 113.59 264.945 117.465C257.972 121.339 250.154 123.241 241.42 123.241H218.459C209.725 123.241 201.907 121.339 194.934 117.465C187.961 113.59 182.467 108.095 178.522 101.051C174.578 93.9355 172.536 85.7636 172.536 76.5351C172.536 68.4336 174.085 61.1776 177.255 54.7669C177.607 54.0624 178.311 53.5693 179.156 53.5693H181.974V53.5693Z" fill="#342C33"/>
</svg>
